<?xml version="1.0" encoding="UTF-8" standalone="no"?>
<svg
   width="11.734093mm"
   height="12.434005mm"
   viewBox="0 0 11.734093 12.434005"
   version="1.1"
   id="svg8"
   sodipodi:docname="kosmorro-icon-white.svg"
   inkscape:version="1.2.1 (9c6d41e4, 2022-07-14)"
   xmlns:inkscape="http://www.inkscape.org/namespaces/inkscape"
   xmlns:sodipodi="http://sodipodi.sourceforge.net/DTD/sodipodi-0.dtd"
   xmlns="http://www.w3.org/2000/svg"
   xmlns:svg="http://www.w3.org/2000/svg"
   xmlns:rdf="http://www.w3.org/1999/02/22-rdf-syntax-ns#"
   xmlns:cc="http://creativecommons.org/ns#"
   xmlns:dc="http://purl.org/dc/elements/1.1/">
  <sodipodi:namedview
     pagecolor="#ffffff"
     bordercolor="#666666"
     borderopacity="1"
     objecttolerance="10"
     gridtolerance="10"
     guidetolerance="10"
     inkscape:pageopacity="0"
     inkscape:pageshadow="2"
     inkscape:window-width="1440"
     inkscape:window-height="762"
     id="namedview10"
     showgrid="false"
     fit-margin-top="0"
     fit-margin-left="0"
     fit-margin-right="0"
     fit-margin-bottom="0"
     inkscape:zoom="5.1310297"
     inkscape:cx="-0.19489265"
     inkscape:cy="23.582011"
     inkscape:window-x="0"
     inkscape:window-y="25"
     inkscape:window-maximized="1"
     inkscape:current-layer="svg8"
     inkscape:showpageshadow="0"
     inkscape:pagecheckerboard="0"
     inkscape:deskcolor="#d1d1d1"
     inkscape:document-units="mm" />
  <defs
     id="defs2">
    <clipPath
       clipPathUnits="userSpaceOnUse"
       id="clipPath890">
      <ellipse
         ry="5.9091215"
         rx="5.5673323"
         cy="43.649025"
         cx="139.07217"
         id="ellipse892"
         style="fill:#ffca66;fill-opacity:1;stroke:#000000;stroke-width:0.298758;stroke-opacity:0.509804" />
    </clipPath>
    <filter
       style="color-interpolation-filters:sRGB"
       inkscape:label="Drop Shadow"
       id="filter847"
       x="-0.10909091"
       y="-0.10909091"
       width="1.2181818"
       height="1.2181818">
      <feFlood
         flood-opacity="0.498039"
         flood-color="rgb(0,0,0)"
         result="flood"
         id="feFlood837" />
      <feComposite
         in="flood"
         in2="SourceGraphic"
         operator="in"
         result="composite1"
         id="feComposite839" />
      <feGaussianBlur
         in="composite1"
         stdDeviation="0.5"
         result="blur"
         id="feGaussianBlur841" />
      <feOffset
         dx="0"
         dy="0"
         result="offset"
         id="feOffset843" />
      <feComposite
         in="SourceGraphic"
         in2="offset"
         operator="over"
         result="composite2"
         id="feComposite845" />
    </filter>
    <filter
       style="color-interpolation-filters:sRGB"
       inkscape:label="Drop Shadow"
       id="filter859"
       x="-0.10462522"
       y="-0.098607808"
       width="1.2092505"
       height="1.1972156">
      <feFlood
         flood-opacity="0.498039"
         flood-color="rgb(0,0,0)"
         result="flood"
         id="feFlood849" />
      <feComposite
         in="flood"
         in2="SourceGraphic"
         operator="in"
         result="composite1"
         id="feComposite851" />
      <feGaussianBlur
         in="composite1"
         stdDeviation="0.5"
         result="blur"
         id="feGaussianBlur853" />
      <feOffset
         dx="0"
         dy="0"
         result="offset"
         id="feOffset855" />
      <feComposite
         in="SourceGraphic"
         in2="offset"
         operator="over"
         result="composite2"
         id="feComposite857" />
    </filter>
  </defs>
  <metadata
     id="metadata5">
    <rdf:RDF>
      <cc:Work
         rdf:about="">
        <dc:format>image/svg+xml</dc:format>
        <dc:type
           rdf:resource="http://purl.org/dc/dcmitype/StillImage" />
      </cc:Work>
    </rdf:RDF>
  </metadata>
  <g
     id="g2615"
     transform="translate(-1.0146595,-1.0846507)">
    <ellipse
       style="fill:#ffca66;fill-opacity:1;stroke:#000000;stroke-width:0.296049;stroke-opacity:0.509804"
       id="path844"
       cx="6.8216815"
       cy="7.3011923"
       rx="5.4655561"
       ry="5.9104762" />
    <path
       id="path833"
       style="font-style:normal;font-variant:normal;font-weight:300;font-stretch:normal;font-size:22.5778px;line-height:1.25;font-family:Raleway;-inkscape-font-specification:'Raleway Light';letter-spacing:0px;word-spacing:0px;fill:#eeeeee;fill-opacity:1;stroke:#111111;stroke-width:0.264583;stroke-opacity:0.0509804"
       d="m 6.881711,13.386364 q -1.24178,0 -2.30293,-0.474134 -1.03858,-0.496711 -1.80623,-1.332088 -0.76764,-0.835378 -1.19662,-1.9416888 -0.42898,-1.106311 -0.42898,-2.325511 0,-1.241778 0.42898,-2.348089 0.45156,-1.106311 1.2192,-1.941689 0.76765,-0.835378 1.80622,-1.309511 1.06116,-0.496711 2.28036,-0.496711 1.2192,0 2.25778,0.496711 1.03857,0.474133 1.80622,1.309511 0.79022,0.835378 1.2192,1.941689 0.45155,1.106311 0.45155,2.348089 0,1.2192 -0.45155,2.325511 -0.42898,1.1063108 -1.19662,1.9416888 -0.76765,0.835377 -1.8288,1.332088 -1.03858,0.474134 -2.25778,0.474134 z M 2.275841,7.3580972 q 0,1.038578 0.36125,1.964267 0.36124,0.9031108 0.97084,1.5804438 0.63218,0.677334 1.46756,1.083734 0.83537,0.383822 1.78364,0.383822 0.94827,0 1.78365,-0.383822 0.83537,-0.4064 1.46755,-1.106312 0.63218,-0.699911 0.99342,-1.6030218 0.36125,-0.925689 0.36125,-1.986844 0,-1.038578 -0.36125,-1.941689 -0.36124,-0.925689 -0.99342,-1.603022 -0.63218,-0.699911 -1.46755,-1.106311 -0.8128,-0.4064 -1.76107,-0.4064 -0.94827,0 -1.78365,0.4064 -0.83537,0.4064 -1.46755,1.106311 -0.6096,0.699911 -0.99342,1.648177 -0.36125,0.925689 -0.36125,1.964267 z"
       inkscape:connector-curvature="0" />
    <circle
       style="fill:#eeeeee;fill-opacity:1;stroke:#111111;stroke-width:0.286482;stroke-opacity:0.0509804"
       id="path844-3"
       cx="142.83353"
       cy="44.171246"
       r="5.5"
       clip-path="url(#clipPath890)"
       transform="matrix(1.0141159,0,0,1,-134.08595,-36.347833)" />
  </g>
</svg>
